<svg xmlns="http://www.w3.org/2000/svg" viewBox="0 0 620 480" role="img" aria-label="Abstract layered map artwork">
  <defs>
    <linearGradient id="planeTeal" x1="0" y1="0" x2="1" y2="1">
      <stop offset="0" stop-color="#5bd7c5" stop-opacity=".95"/>
      <stop offset="1" stop-color="#138d9d" stop-opacity=".72"/>
    </linearGradient>
    <linearGradient id="planePurple" x1="0" y1="0" x2="1" y2="1">
      <stop offset="0" stop-color="#bd8dde" stop-opacity=".9"/>
      <stop offset="1" stop-color="#6e50a7" stop-opacity=".72"/>
    </linearGradient>
    <linearGradient id="planeBlue" x1="0" y1="0" x2="1" y2="1">
      <stop offset="0" stop-color="#4e9dc5" stop-opacity=".78"/>
      <stop offset="1" stop-color="#405a9a" stop-opacity=".62"/>
    </linearGradient>
    <linearGradient id="ring" x1="0" y1="0" x2="1" y2="1">
      <stop offset="0" stop-color="#ffffff" stop-opacity=".92"/>
      <stop offset=".5" stop-color="#86d8cc" stop-opacity=".78"/>
      <stop offset="1" stop-color="#b48bd3" stop-opacity=".65"/>
    </linearGradient>
    <filter id="glow" x="-50%" y="-50%" width="200%" height="200%">
      <feGaussianBlur stdDeviation="4" result="blur"/>
      <feMerge><feMergeNode in="blur"/><feMergeNode in="SourceGraphic"/></feMerge>
    </filter>
  </defs>

  <g fill="none" stroke="#ffffff" stroke-opacity=".09">
    <circle cx="307" cy="240" r="206"/>
    <circle cx="307" cy="240" r="166"/>
    <circle cx="307" cy="240" r="126"/>
    <path d="M20 358C160 270 216 191 308 45M97 447C218 328 363 181 590 93"/>
  </g>

  <g fill="#ffffff" opacity=".22">
    <circle cx="61" cy="74" r="2"/><circle cx="82" cy="74" r="2"/><circle cx="103" cy="74" r="2"/><circle cx="124" cy="74" r="2"/>
    <circle cx="61" cy="95" r="2"/><circle cx="82" cy="95" r="2"/><circle cx="103" cy="95" r="2"/><circle cx="124" cy="95" r="2"/>
    <circle cx="497" cy="372" r="2"/><circle cx="518" cy="372" r="2"/><circle cx="539" cy="372" r="2"/><circle cx="560" cy="372" r="2"/>
    <circle cx="497" cy="393" r="2"/><circle cx="518" cy="393" r="2"/><circle cx="539" cy="393" r="2"/><circle cx="560" cy="393" r="2"/>
  </g>

  <circle cx="307" cy="240" r="177" fill="none" stroke="url(#ring)" stroke-width="2" stroke-opacity=".9"/>
  <circle cx="151" cy="158" r="5" fill="#ffffff" filter="url(#glow)"/>
  <circle cx="454" cy="335" r="4" fill="#70d3c2" filter="url(#glow)"/>

  <g transform="translate(0 5)">
    <polygon points="126,203 292,109 491,221 322,316" fill="url(#planePurple)" opacity=".88"/>
    <polygon points="98,266 278,163 507,291 323,395" fill="url(#planeTeal)" opacity=".9"/>
    <polygon points="154,326 306,239 467,330 314,418" fill="url(#planeBlue)" opacity=".72"/>
    <polygon points="167,152 286,85 416,158 296,227" fill="url(#planeBlue)" opacity=".58"/>
  </g>

  <g fill="none" stroke="#ffffff" stroke-width="1.25" stroke-opacity=".66">
    <polygon points="144,252 286,171 446,261 302,343"/>
    <polyline points="107,267 196,216 285,267 375,215 475,271"/>
    <polyline points="173,317 245,276 317,316 391,274"/>
    <line x1="198" y1="189" x2="198" y2="334"/>
    <line x1="286" y1="139" x2="286" y2="372"/>
  </g>

  <path d="M349.32,297.34 L354.30,299.12 L357.11,298.42 L361.14,297.43 L364.23,297.77 L364.59,303.89 L362.83,305.67 L362.30,309.82 L360.49,308.41 L356.91,312.00 L355.85,311.72 L352.67,311.56 L349.50,307.15 L348.79,303.74 L345.81,299.25 L345.95,296.89 L349.32,297.34 Z M339.85,157.96 L341.71,162.01 L345.02,160.06 L346.73,162.25 L349.20,164.26 L348.67,166.55 L349.77,170.97 L350.55,173.54 L351.85,174.17 L353.25,178.58 L352.75,181.25 L354.42,184.75 L360.01,187.44 L363.65,189.89 L367.11,192.14 L366.44,193.39 L369.39,196.62 L371.39,202.20 L373.45,201.07 L375.54,203.30 L376.80,202.51 L377.69,207.98 L381.35,211.14 L383.75,213.11 L387.78,217.29 L389.22,221.43 L389.36,224.37 L389.00,227.56 L391.46,231.94 L391.16,236.51 L390.27,238.90 L388.88,243.50 L388.98,246.45 L387.96,250.15 L385.69,254.84 L381.87,257.37 L379.98,261.37 L378.26,263.92 L376.74,268.37 L374.74,270.94 L373.44,274.80 L372.77,278.35 L373.04,279.98 L370.08,281.77 L364.31,281.96 L359.55,284.07 L357.18,286.07 L354.06,288.28 L349.79,286.01 L346.63,285.10 L347.43,282.41 L344.62,283.38 L340.10,287.12 L335.64,285.72 L332.72,284.90 L329.77,284.53 L324.78,283.04 L321.44,279.86 L320.49,275.95 L319.29,273.34 L316.75,271.25 L311.79,270.63 L313.49,268.13 L312.24,264.30 L309.72,267.87 L305.13,268.82 L307.83,265.96 L308.61,262.99 L310.60,260.46 L310.19,256.64 L306.00,261.04 L302.78,262.81 L300.80,266.91 L296.77,264.79 L296.93,262.05 L293.71,258.31 L290.99,256.38 L291.96,255.19 L285.34,252.06 L281.72,251.91 L276.76,249.40 L267.52,249.89 L260.85,251.74 L254.98,253.46 L250.06,253.12 L244.59,255.76 L240.12,256.95 L239.13,259.65 L237.22,261.75 L232.85,261.88 L229.61,262.33 L225.05,261.39 L221.34,261.96 L217.80,262.19 L214.73,264.94 L213.23,264.71 L210.64,266.17 L208.16,267.81 L204.40,267.60 L200.95,267.60 L195.48,264.31 L192.70,263.33 L192.82,260.37 L195.38,259.67 L196.25,258.50 L196.07,256.65 L196.70,253.06 L196.12,250.00 L193.40,244.79 L192.55,241.85 L192.77,238.91 L190.72,235.55 L190.59,234.04 L188.30,231.98 L187.66,227.95 L184.71,223.86 L184.00,221.66 L186.27,223.89 L184.53,219.11 L187.08,220.60 L188.61,222.60 L188.52,219.96 L185.97,215.90 L185.48,214.28 L184.28,212.73 L184.84,209.75 L185.90,208.48 L186.60,205.90 L186.05,202.89 L188.18,199.18 L188.57,203.10 L190.75,199.56 L194.94,197.83 L197.45,195.63 L201.39,193.74 L203.74,193.34 L205.16,193.97 L209.22,192.05 L212.35,191.48 L213.13,190.35 L214.49,189.88 L217.35,190.00 L222.76,188.49 L225.57,186.20 L226.88,183.45 L229.91,180.83 L230.14,178.77 L230.28,175.97 L233.88,171.58 L236.06,176.04 L238.25,175.01 L236.41,172.57 L238.03,170.07 L240.31,171.19 L240.93,167.26 L243.75,164.73 L245.00,162.69 L247.59,161.81 L247.67,160.37 L249.94,160.97 L250.03,159.68 L252.29,158.94 L254.79,158.24 L258.60,160.61 L261.46,163.66 L264.69,163.70 L267.97,164.18 L266.87,161.35 L269.34,157.22 L271.67,155.87 L270.86,154.58 L273.10,151.63 L276.23,149.81 L278.86,150.43 L283.20,149.46 L283.10,146.82 L279.33,145.12 L282.07,144.37 L285.49,145.65 L288.23,147.77 L292.57,149.09 L294.04,148.56 L297.24,150.15 L300.25,148.67 L302.19,149.12 L303.40,148.13 L305.76,150.68 L304.39,153.44 L302.43,155.53 L300.66,155.70 L301.26,157.76 L299.74,160.34 L297.91,162.87 L298.28,164.33 L302.38,167.18 L306.35,168.83 L309.01,170.60 L312.73,173.66 L314.19,173.65 L316.89,174.97 L317.67,176.57 L322.59,178.32 L326.00,176.55 L327.01,173.79 L328.05,171.50 L328.70,168.67 L330.26,164.57 L329.55,162.08 L329.92,160.58 L329.32,157.62 L330.00,153.74 L330.99,152.69 L330.18,150.97 L331.43,148.24 L332.41,145.40 L332.54,143.93 L334.46,142.00 L335.91,144.52 L336.27,147.76 L337.55,148.38 L337.77,150.55 L339.65,153.17 L340.03,156.09 L339.85,157.96 Z" fill="#ffffff" fill-opacity=".08" stroke="#ffffff" stroke-opacity=".78" stroke-width="1.5" fill-rule="evenodd" transform="translate(6 5)"/>

  <g fill="#ffffff">
    <circle cx="107" cy="272" r="3" filter="url(#glow)"/>
    <circle cx="198" cy="221" r="2.5"/>
    <circle cx="285" cy="272" r="2.5"/>
    <circle cx="375" cy="220" r="2.5"/>
    <circle cx="475" cy="276" r="3" filter="url(#glow)"/>
    <circle cx="245" cy="281" r="2.5"/>
    <circle cx="391" cy="279" r="2.5"/>
  </g>
</svg>
